<svg xmlns="http://www.w3.org/2000/svg" width="411" height="80" fill="none" viewBox="0 0 411 80">
    <path fill="#1F191A" fill-rule="evenodd" d="M47.577 2.933v32.598H16.321V2.933H0v75.31h16.32v-34.32h31.257v34.32h16.32V2.932h-16.32zM85.125 43.923h19.414c.426-10.329-3.84-13.879-8.748-13.879-5.44 0-10.24 4.842-10.666 13.879zm.858 8.498c2.561 10.651 11.094 14.632 18.349 14.632 6.187 0 11.733-2.044 15.041-5.379-.854 10.542-9.387 17.643-21.975 17.643-14.188 0-26.136-10.973-26.136-27.434 0-16.782 10.988-29.262 26.136-29.262 14.934 0 22.082 9.79 22.082 18.29 0 .43 0 .86-.107 1.505l-33.39 10.006z" clip-rule="evenodd"/>
    <mask id="82l8s80w8a" width="52" height="80" x="184" y="0" maskUnits="userSpaceOnUse">
        <path fill="#fff" fill-rule="evenodd" d="M184.338.833h51.523v78.484h-51.523V.833z" clip-rule="evenodd"/>
    </mask>
    <g mask="url(#82l8s80w8a)">
        <path fill="#1F191A" fill-rule="evenodd" d="M220.926 66.73V33.81c-2.346-2.474-5.334-3.98-8.96-3.98-6.507 0-11.841 5.594-11.841 17.32 0 12.373 4.907 21.517 14.294 21.517 2.454 0 4.695-.86 6.507-1.936zm14.935 11.512h-14.934v-9.037c-2.774 5.702-8.215 10.112-15.575 10.112-11.201 0-21.014-10.112-21.014-26.788 0-17.536 10.56-29.908 27.095-29.908 2.987 0 6.4.538 9.494 1.614V5.308L235.861.833v77.409z" clip-rule="evenodd"/>
    </g>
    <path fill="#1F191A" fill-rule="evenodd" d="M161.951 66.73V33.81c-2.347-2.474-5.334-3.98-8.96-3.98-6.507 0-11.841 5.594-11.841 17.32 0 12.373 4.906 21.517 14.294 21.517 2.453 0 4.694-.86 6.507-1.936zm14.934 11.511h-14.934v-9.036c-2.773 5.701-8.214 10.112-15.575 10.112-11.2 0-21.014-10.112-21.014-26.788 0-17.536 10.561-29.909 27.095-29.909 6.185 0 9.601 3.38 9.601 3.38l14.827-4.444v56.685zM249.413 5.308L264.241.865V78.24h-14.828V5.308zM277.9 27.04l14.827-4.444v55.645H277.9V27.04zM306.375 27.04l14.827-4.45v10.575c3.628-5.917 9.175-10.544 17.602-10.544 8.854 0 15.575 5.918 15.575 18.504v37.117H339.55v-32.06c0-8.5-3.52-12.695-10.666-12.695-2.561 0-5.122.753-7.682 1.937v42.818h-14.827V27.04zM375.599 43.923h19.415c.426-10.329-3.84-13.879-8.748-13.879-5.441 0-10.24 4.842-10.667 13.879zm.859 8.498c2.561 10.651 11.094 14.632 18.349 14.632 6.187 0 11.733-2.044 15.041-5.379-.854 10.542-9.388 17.643-21.976 17.643-14.187 0-26.135-10.973-26.135-27.434 0-16.782 10.988-29.262 26.135-29.262 14.935 0 22.082 9.79 22.082 18.29 0 .43 0 .86-.106 1.505l-33.39 10.006z" clip-rule="evenodd"/>
    <mask id="68otsowuab" width="410" height="80" x="0" y="0" maskUnits="userSpaceOnUse">
        <path fill="#fff" fill-rule="evenodd" d="M0 79.318h409.954V.833H0v78.485z" clip-rule="evenodd"/>
    </mask>
    <g mask="url(#68otsowuab)">
        <path fill="#1F191A" fill-rule="evenodd" d="M277.137 15.05h16.34V3.403h-16.34v11.645z" clip-rule="evenodd"/>
    </g>
</svg>
